<svg xmlns="http://www.w3.org/2000/svg"><symbol id="whatsapp" preserveAspectRatio="none" viewBox="0 0 512 512"><circle cx="256" cy="256" r="256" fill="#addc51"/><path d="M156.487 155.369c-46.11 46.11-53.793 116.381-22.341 170.653l-19.68 71.05 113.38 113.38A258.94 258.94 0 00256 512c124.183 0 227.7-88.425 251.055-205.744L356.169 155.369c-55.136-55.135-144.513-55.17-199.682 0z" fill="#94c435"/><path d="M356.169 155.369c-55.136-55.136-144.513-55.17-199.682 0-46.11 46.11-53.793 116.381-22.341 170.653l-19.68 71.05 71.05-19.68c54.572 31.627 124.772 23.539 170.653-22.341 55.127-55.127 55.178-144.504 0-199.682z" fill="#5a915a"/><path d="M333.725 305.616c-.053-4.215-3.993-7.646-8.823-8.238a117.45 117.45 0 01-33.314-9.114c-3.745-1.641-8.061-.988-10.66 1.754a216.334 216.334 0 01-7.251 7.415c-25.691-12.922-46.646-33.878-59.568-59.568a219.16 219.16 0 017.415-7.252c2.74-2.599 3.395-6.915 1.754-10.66a117.493 117.493 0 01-9.114-33.314c-.593-4.827-4.019-8.77-8.231-8.823h-10.481c-15.288-.865-28.512 20.028-21.893 44.091 15.459 56.285 59.793 100.618 116.077 116.077 24.061 6.619 44.957-6.611 44.091-21.897-.002-3.491-.002-6.981-.002-10.471z" fill="#fff"/></symbol><symbol id="telegram" preserveAspectRatio="none" viewBox="0 0 512 512"><circle cx="255.997" cy="256" r="255.997" fill="#41b4e6"/><path d="M512 256.003c0-6.238-.235-12.419-.673-18.546L405.228 131.36 106.772 248.759l114.191 114.192 1.498 5.392 1.939-1.955.008.008-1.947 1.947L348.778 494.66C444.298 457.5 512 364.663 512 256.003z" fill="#0091c8"/><path fill="#fff" d="M231.138 293.3l115.691 87.347 58.399-249.287-298.457 117.399 90.817 30.081 165.743-111.176z"/><path fill="#d2d2d7" d="M197.588 278.84l24.873 89.504 8.677-75.044 132.193-125.636z"/><path fill="#b9b9be" d="M268.738 321.688l-46.277 46.656 8.677-75.044z"/></symbol><symbol id="viber" preserveAspectRatio="none" viewBox="0 0 512 512"><circle cx="256.003" cy="256.003" r="256.003" fill="#41b4e6"/><path d="M396.054 115.946c-12.916-12.916-30.759-20.905-50.468-20.905H166.415c-39.418 0-71.373 31.954-71.373 71.373v179.171c0 19.709 7.989 37.552 20.905 50.468l114.698 114.698c8.342.82 16.798 1.249 25.356 1.249 141.385 0 255.999-114.615 256-256 0-8.557-.429-17.014-1.249-25.356L396.054 115.946z" fill="#0091c8"/><path d="M345.585 416.958h-179.17c-39.418 0-71.373-31.954-71.373-71.373v-179.17c0-39.418 31.954-71.373 71.373-71.373h179.171c39.418 0 71.373 31.954 71.373 71.373v179.171c-.001 39.418-31.955 71.372-71.374 71.372z" fill="#6e64c3"/><g fill="#fff"><path d="M233.688 227.433a11.494 11.494 0 002.414-16.125l-12.124-16.289a8.832 8.832 0 00-12.544-1.67 1797.29 1797.29 0 01-7.106 5.567 16.902 16.902 0 00-5.449 19.249 142.729 142.729 0 0082.084 83.187c7.803 3.027 16.659-.104 20.803-7.375l4.658-8.176a8.828 8.828 0 00-2.747-11.698l-14.836-9.968a11.5 11.5 0 00-8.836-1.694 11.5 11.5 0 00-7.356 5.188l-1.392 2.255a4.313 4.313 0 01-6.034 1.344 123.12 123.12 0 01-35.665-35.73 4.311 4.311 0 011.098-5.859c.934-.671 1.97-1.426 3.032-2.206zm77.732 21.027a4.437 4.437 0 01-4.436-4.436c0-29.2-23.756-52.956-52.956-52.956a4.437 4.437 0 010-8.872c34.092 0 61.828 27.737 61.828 61.828a4.435 4.435 0 01-4.436 4.436z"/><path d="M297.519 248.46a4.437 4.437 0 01-4.436-4.436c0-21.535-17.52-39.054-39.054-39.054a4.437 4.437 0 010-8.872c26.427 0 47.927 21.5 47.927 47.927a4.437 4.437 0 01-4.437 4.435z"/><path d="M283.864 248.46a4.437 4.437 0 01-4.436-4.436c0-14.005-11.395-25.4-25.4-25.4a4.437 4.437 0 010-8.872c18.898 0 34.273 15.375 34.273 34.273a4.437 4.437 0 01-4.437 4.435z"/><path d="M366.185 222.096c0-44.436-36.022-80.458-80.458-80.458h-56.964c-45.797 0-82.922 37.125-82.922 82.922v35.768c0 35.333 22.108 65.485 53.238 77.428v28.095a8.054 8.054 0 005.215 7.512 8.056 8.056 0 008.862-2.257l24.164-27.855h48.408c44.436 0 80.458-36.022 80.458-80.458v-40.697zm-18.731 40.697c0 34.036-27.69 61.726-61.726 61.726h-42.911l-33.065 38.45a1.584 1.584 0 01-2.786-1.032v-41.234c-24.696-8.944-42.393-32.629-42.393-60.374v-35.768c0-35.395 28.796-64.191 64.191-64.191h56.965c34.036 0 61.726 27.69 61.726 61.726v40.697z"/></g></symbol><symbol id="phone" preserveAspectRatio="none" viewBox="0 0 512 512"><circle cx="255.999" cy="255.999" r="255.999" fill="#e6eff4"/><path d="M367.68 144.32l-.16.16c-28.441-24.252-67.899-39.281-111.52-39.281-86.666 0-156.923 59.308-156.923 132.467 0 45.297 26.938 85.276 68.022 109.163-4.99 12.783-12.844 28.641-22.948 40.564l-8.746 8.746 115.8 115.8c1.596.03 3.191.06 4.794.06 130.963 0 238.94-98.345 254.15-225.209L381.543 158.184a141.912 141.912 0 00-11.524-11.524l-2.339-2.34z" fill="#b6d1dd"/><path d="M256 105.2c-86.666 0-156.923 59.308-156.923 132.467 0 45.297 26.938 85.275 68.022 109.163-6.35 16.27-17.324 37.546-31.694 49.309 28.412-7.78 52.387-19.266 69.509-33.19 16.015 4.653 33.2 7.185 51.086 7.185 86.666 0 156.923-59.308 156.923-132.467C412.924 164.507 342.666 105.2 256 105.2z" fill="#41a0d7"/><path d="M310.543 234.828c51.227 0 92.755 35.056 92.755 78.3 0 26.775-15.923 50.406-40.207 64.526 3.754 9.616 10.239 22.193 18.734 29.147-16.794-4.598-30.966-11.388-41.086-19.618-9.466 2.75-19.624 4.247-30.197 4.247-51.227 0-92.756-35.056-92.756-78.3.001-43.245 41.529-78.302 92.757-78.302z" fill="#fff"/><g fill="#00558c"><circle cx="314.457" cy="311.751" r="14.613"/><circle cx="267.687" cy="311.751" r="14.613"/><circle cx="361.216" cy="311.751" r="14.613"/></g></symbol></svg>